<svg width="195" height="137" viewBox="0 0 195 137" fill="none" xmlns="http://www.w3.org/2000/svg">
<path d="M129.59 137H186.91C190.627 137 193.044 133.088 191.382 129.764L127.882 2.76393C127.035 1.07001 125.304 0 123.41 0H66.0902C62.3733 0 59.9558 3.91154 61.618 7.23605L125.118 134.236C125.965 135.93 127.696 137 129.59 137Z" fill="#333333"/>
<path d="M9.0871 136.5H48.5655C50.2785 136.5 51.8722 135.623 52.7891 134.176L87.9532 78.676C90.0624 75.347 87.6705 71 83.7295 71H44.2512C42.5382 71 40.9444 71.8769 40.0276 73.324L4.86348 128.824C2.75423 132.153 5.1461 136.5 9.0871 136.5Z" fill="#333333"/>
</svg>
